# xmcd
#
# Track frame offsets:
#	150
#	6519
#	17556
#	27623
#	32131
#	37783
#	53000
#	63482
#	74217
#	81977
#	102366
#	116445
#
# Disc length: 1739 seconds
#
# Revision: 1
# Processed by: cddbd v1.5.2PL0 Copyright (c) Steve Scherf et al.
# Submitted via: audiograbber 1.83.01
#
DISCID=a106c90c
DTITLE=Tammy Wynette - The Best of Tammy Wynette Live In Concert
DYEAR=1999
DGENRE=Country
TTITLE0=Welcome to My World (Live)
TTITLE1=D.I.V.O.R.C.E. (Live)
TTITLE2=Another Chance (Live)
TTITLE3=Your Good Girl's Gonna Go Bad (Live)
TTITLE4=Singing My Song (Live)
TTITLE5=Til I Can Make It On My Own (Live)
TTITLE6=Womanhood (Live)
TTITLE7=I Still Believe In Fairy Tales (Live)
TTITLE8=When The Grass Grows Over Me (Live)
TTITLE9=Medley (Live)
TTITLE10=Cryin' In The Rain (Live)
TTITLE11=Stand By Your Man (Live)
EXTD=
EXTT0=
EXTT1=
EXTT2=
EXTT3=
EXTT4=
EXTT5=
EXTT6=
EXTT7=
EXTT8=
EXTT9=
EXTT10=
EXTT11=
PLAYORDER=
